<mxfile host="app.diagrams.net" agent="Mozilla/5.0 (Windows NT 10.0; Win64; x64) AppleWebKit/537.36 (KHTML, like Gecko) Chrome/134.0.0.0 Safari/537.36" version="26.1.1">
  <diagram name="第 1 页" id="ZcWv_WE9x52VTgQ7J4RL">
    <mxGraphModel dx="724" dy="360" grid="0" gridSize="10" guides="1" tooltips="1" connect="1" arrows="1" fold="1" page="1" pageScale="1" pageWidth="827" pageHeight="1169" math="0" shadow="0">
      <root>
        <mxCell id="0" />
        <mxCell id="1" parent="0" />
        <mxCell id="aD5c474soejIc-529H0l-3" value="" style="rounded=1;whiteSpace=wrap;html=1;strokeWidth=1;glass=0;arcSize=49;rotation=90;container=0;fillColor=#000000;strokeColor=#000000;" vertex="1" parent="1">
          <mxGeometry x="88.35034305317325" y="115.22" width="50" height="10" as="geometry" />
        </mxCell>
        <mxCell id="aD5c474soejIc-529H0l-10" value="" style="rounded=1;whiteSpace=wrap;html=1;strokeWidth=1;glass=0;arcSize=49;rotation=90;container=0;fillColor=#000000;strokeColor=#000000;" vertex="1" parent="1">
          <mxGeometry x="88.35034305317325" y="173.00260869565216" width="50" height="10" as="geometry" />
        </mxCell>
        <mxCell id="aD5c474soejIc-529H0l-11" value="" style="rounded=1;whiteSpace=wrap;html=1;strokeWidth=1;glass=0;arcSize=49;rotation=-180;container=0;fillColor=#000000;strokeColor=#000000;" vertex="1" parent="1">
          <mxGeometry x="120" y="81" width="50" height="10" as="geometry" />
        </mxCell>
        <mxCell id="aD5c474soejIc-529H0l-13" value="" style="rounded=1;whiteSpace=wrap;html=1;strokeWidth=1;glass=0;arcSize=49;rotation=-180;container=0;aspect=fixed;fillColor=#000000;strokeColor=#000000;" vertex="1" parent="1">
          <mxGeometry x="120" y="144.99869565217392" width="50" height="8.33" as="geometry" />
        </mxCell>
        <mxCell id="aD5c474soejIc-529H0l-14" value="" style="rounded=1;whiteSpace=wrap;html=1;strokeWidth=1;glass=0;arcSize=49;rotation=-180;container=0;fillColor=#000000;strokeColor=#000000;" vertex="1" parent="1">
          <mxGeometry x="179" y="81" width="50" height="10" as="geometry" />
        </mxCell>
        <mxCell id="aD5c474soejIc-529H0l-15" value="" style="rounded=1;whiteSpace=wrap;html=1;strokeWidth=1;glass=0;arcSize=49;rotation=90;container=0;fillColor=#000000;strokeColor=#000000;" vertex="1" parent="1">
          <mxGeometry x="178.34686106346487" y="172.99913043478261" width="50" height="10" as="geometry" />
        </mxCell>
        <mxCell id="aD5c474soejIc-529H0l-21" value="" style="rounded=1;whiteSpace=wrap;html=1;strokeWidth=1;glass=0;arcSize=49;rotation=90;container=0;fillColor=#000000;strokeColor=#000000;" vertex="1" parent="1">
          <mxGeometry x="178.35034305317325" y="114.22" width="50" height="10" as="geometry" />
        </mxCell>
      </root>
    </mxGraphModel>
  </diagram>
</mxfile>
